<?xml version="1.0" encoding="utf-8"?>
<!-- Generator: Adobe Illustrator 24.3.0, SVG Export Plug-In . SVG Version: 6.00 Build 0)  -->
<svg version="1.1" id="Layer_1" xmlns="http://www.w3.org/2000/svg" xmlns:xlink="http://www.w3.org/1999/xlink" x="0px" y="0px"
	 viewBox="0 0 120 24.5" style="enable-background:new 0 0 120 24.5;" xml:space="preserve">
<style type="text/css">
	.st0{fill:#FFFFFF;}
	.st1{fill:#3C64FF;}
</style>
<g id="Group_76_1_" transform="translate(-2904.848 5075.791)">
	<g id="Group_76-2_1_" transform="translate(2928.042 -5075.791)">
		<path id="Path_105_1_" class="st0" d="M2.5,4.1C3.3,4.5,4.1,5,4.7,5.7C4.9,5.9,5,6.2,5,6.5c0,0.3-0.2,0.6-0.4,0.8
			C4.3,7.5,4.1,7.6,3.8,7.6C3.4,7.5,2.9,7.4,2.6,7C2.2,6.7,1.7,6.4,1.2,6.2C0.6,6,0,5.9-0.6,5.9c-0.7,0-1.4,0.1-2,0.4
			C-3.1,6.5-3.4,7-3.4,7.5c0,0.3,0.1,0.6,0.3,0.9c0.3,0.3,0.6,0.5,1,0.7C-1.4,9.3-0.7,9.5,0,9.6c1.5,0.2,2.9,0.8,4.1,1.6
			c0.8,0.7,1.2,1.6,1.2,2.7c0,0.8-0.2,1.6-0.7,2.2c-0.5,0.7-1.2,1.2-1.9,1.6c-1,0.4-2,0.6-3.1,0.6c-1.2,0-2.3-0.2-3.4-0.6
			c-0.9-0.3-1.8-0.8-2.5-1.5c-0.2-0.2-0.3-0.5-0.3-0.8c0-0.4,0.2-0.8,0.5-1c0.3-0.2,0.6-0.3,0.9-0.4c0.4,0,0.7,0.2,1,0.5
			c0.4,0.4,0.9,0.8,1.5,1c0.7,0.3,1.4,0.4,2.1,0.4c0.8,0,1.6-0.1,2.3-0.5c0.5-0.3,0.8-0.8,0.8-1.3c0-0.6-0.3-1.1-0.8-1.4
			C1,12.2,0,11.9-0.9,11.8C-4.3,11.1-6,9.7-6,7.6C-6,6.8-5.7,6-5.2,5.4C-4.7,4.8-4,4.3-3.2,4c0.8-0.3,1.7-0.5,2.6-0.4
			C0.5,3.6,1.5,3.8,2.5,4.1z"/>
		<path id="Path_106_1_" class="st0" d="M20.6,4.9c0,0.2-0.1,0.4-0.2,0.6l-8.1,18.2c-0.1,0.5-0.5,0.8-1,0.8c-0.2,0-0.4-0.1-0.6-0.2
			c-0.5-0.1-0.8-0.6-0.8-1c0-0.2,0.1-0.4,0.2-0.6l2.6-5.9L6.7,5.4C6.6,5.3,6.6,5.1,6.6,4.9c0-0.2,0.1-0.5,0.2-0.6
			c0.1-0.2,0.3-0.3,0.6-0.4c0.2-0.1,0.3-0.1,0.5-0.1C8.4,3.7,8.8,4,9,4.4l4.8,9.6l4.3-9.6c0.1-0.4,0.6-0.8,1-0.8
			c0.2,0,0.4,0,0.6,0.1C20.2,3.9,20.6,4.4,20.6,4.9z"/>
		<path id="Path_107_1_" class="st0" d="M30.5,4.1c0.8,0.3,1.6,0.8,2.2,1.5C32.9,5.9,33,6.2,33,6.5c0,0.3-0.2,0.6-0.4,0.8
			c-0.2,0.1-0.5,0.2-0.7,0.2c-0.5,0-0.9-0.2-1.2-0.5c-0.4-0.4-0.9-0.7-1.4-0.9C28.6,6,28,5.9,27.4,5.9c-0.7,0-1.4,0.1-2,0.4
			c-0.5,0.2-0.8,0.6-0.8,1.1c0,0.3,0.1,0.6,0.3,0.9c0.3,0.3,0.6,0.5,1,0.7c0.7,0.3,1.4,0.5,2.1,0.6c1.5,0.2,2.9,0.8,4.1,1.6
			c0.8,0.7,1.2,1.6,1.2,2.7c0,0.8-0.2,1.6-0.7,2.2c-0.5,0.7-1.2,1.2-1.9,1.6c-1,0.4-2,0.6-3.1,0.6c-1.2,0-2.3-0.2-3.4-0.6
			c-0.9-0.3-1.8-0.8-2.5-1.5c-0.2-0.2-0.3-0.5-0.3-0.8c0-0.4,0.2-0.8,0.5-1c0.3-0.2,0.6-0.3,0.9-0.4c0.4,0,0.7,0.2,1,0.5
			c0.4,0.4,0.9,0.8,1.5,1c0.7,0.3,1.4,0.4,2.1,0.4c0.8,0,1.6-0.1,2.3-0.5c0.5-0.3,0.8-0.8,0.8-1.3c0-0.6-0.3-1.1-0.8-1.4
			c-0.9-0.5-1.8-0.8-2.8-0.9c-3.4-0.7-5.1-2-5.1-4.2c0-0.8,0.3-1.6,0.8-2.2c0.5-0.6,1.2-1.1,2-1.3c0.8-0.3,1.7-0.5,2.6-0.4
			C28.5,3.6,29.6,3.8,30.5,4.1z"/>
		<path id="Path_108_1_" class="st0" d="M43.7,15.9c0.2,0.3,0.3,0.6,0.3,1c0,0.4-0.2,0.7-0.4,1c-0.3,0.3-0.7,0.4-1.1,0.4H42
			c-0.8,0-1.7-0.2-2.4-0.7c-0.7-0.5-1.3-1.1-1.7-1.8c-0.4-0.8-0.6-1.7-0.6-2.6V6.5h-1.2c-0.3,0-0.7-0.1-0.9-0.3
			C35,6,34.9,5.7,34.9,5.4c0-0.3,0.1-0.6,0.3-0.8c0.2-0.2,0.6-0.3,0.9-0.3h1.2V1.3c0-0.4,0.1-0.7,0.4-1C38,0.1,38.3,0,38.7,0
			c0.4,0,0.7,0.1,1,0.4C39.9,0.6,40,1,40,1.3v2.9h2.2c0.3,0,0.7,0.1,0.9,0.3c0.2,0.2,0.4,0.5,0.3,0.8c0,0.3-0.1,0.6-0.3,0.8
			c-0.2,0.2-0.6,0.3-0.9,0.3H40V13c0,0.6,0.2,1.3,0.6,1.8c0.3,0.5,0.9,0.7,1.4,0.7h0.9C43.2,15.5,43.5,15.6,43.7,15.9z"/>
		<path id="Path_109_1_" class="st0" d="M58.9,11.5c-0.2,0.2-0.5,0.3-0.9,0.3H48c0.2,1.2,0.8,2.2,1.7,3c1,0.8,2.2,1.2,3.4,1.1
			c0.6,0,1.1-0.1,1.7-0.3c0.5-0.2,1-0.4,1.4-0.7c0.2-0.2,0.6-0.3,0.9-0.3c0.3,0,0.6,0.1,0.8,0.3c0.3,0.2,0.5,0.5,0.5,0.9
			c0,0.3-0.2,0.6-0.4,0.8c-0.7,0.5-1.4,0.9-2.2,1.2c-0.8,0.3-1.7,0.4-2.5,0.4c-1.4,0-2.7-0.3-3.9-0.9c-1.1-0.6-2-1.5-2.7-2.6
			c-0.7-1.2-1-2.5-1-3.8c0-1.3,0.3-2.6,0.9-3.8C47,6,47.9,5.1,49,4.5c1.1-0.6,2.4-1,3.7-0.9c1.2,0,2.4,0.3,3.5,0.9
			C57.2,5.1,58,6,58.4,7c0.5,1.2,0.8,2.4,0.8,3.7C59.3,11,59.1,11.3,58.9,11.5z M49.5,6.9c-0.8,0.7-1.4,1.7-1.5,2.8h8.8
			c-0.1-1.1-0.6-2.1-1.3-2.8c-0.8-0.7-1.8-1.1-2.8-1.1C51.5,5.8,50.4,6.2,49.5,6.9L49.5,6.9z"/>
		<path id="Path_110_1_" class="st0" d="M81.1,5.1c1,1.2,1.5,2.7,1.4,4.2v7.6c0,0.4-0.1,0.7-0.4,1c-0.3,0.3-0.6,0.4-1,0.4
			c-0.4,0-0.7-0.1-1-0.4c-0.3-0.3-0.4-0.6-0.4-1V9.3c0.1-0.9-0.2-1.8-0.8-2.4C78.4,6.3,77.6,6,76.8,6c-0.9,0-1.7,0.3-2.3,1
			c-0.6,0.7-0.9,1.5-0.9,2.4v7.5c0,0.4-0.1,0.7-0.4,1c-0.3,0.3-0.6,0.4-1,0.4c-0.4,0-0.7-0.1-1-0.4c-0.3-0.3-0.4-0.6-0.4-1V9.3
			c0.1-0.9-0.2-1.8-0.8-2.4C69.6,6.3,68.8,6,68,6c-0.9,0-1.7,0.3-2.3,1c-0.6,0.7-0.9,1.5-0.9,2.4v7.5c0,0.4-0.1,0.7-0.4,1
			c-0.3,0.3-0.6,0.4-1,0.4c-0.4,0-0.7-0.1-1-0.4c-0.3-0.3-0.4-0.6-0.4-1V5.1c0-0.4,0.1-0.7,0.4-1c0.3-0.2,0.6-0.4,1-0.4
			c0.4,0,0.7,0.1,1,0.4c0.3,0.2,0.4,0.6,0.4,0.9c0.5-0.5,1-0.8,1.6-1.1c0.7-0.3,1.4-0.4,2.1-0.4c0.8,0,1.7,0.2,2.4,0.5
			c0.7,0.4,1.3,0.9,1.8,1.5c0.5-0.7,1.2-1.2,2-1.5c0.8-0.4,1.7-0.6,2.6-0.6C78.7,3.5,80.1,4.1,81.1,5.1z"/>
		<path id="Path_111_1_" class="st0" d="M94,4.1c0.8,0.3,1.6,0.8,2.2,1.5c0.2,0.2,0.3,0.5,0.3,0.8c0,0.3-0.2,0.6-0.4,0.8
			c-0.2,0.1-0.5,0.2-0.7,0.2c-0.5,0-0.9-0.2-1.2-0.5c-0.4-0.4-0.9-0.7-1.4-0.9c-0.6-0.2-1.2-0.3-1.8-0.3c-0.7,0-1.4,0.1-2,0.4
			c-0.5,0.2-0.8,0.6-0.8,1.1c0,0.3,0.1,0.6,0.3,0.9c0.3,0.3,0.6,0.5,1,0.7c0.7,0.3,1.4,0.5,2.1,0.6c1.5,0.2,2.9,0.8,4.1,1.6
			c0.8,0.7,1.2,1.6,1.2,2.7c0,0.8-0.2,1.6-0.7,2.2c-0.5,0.7-1.2,1.2-1.9,1.6c-1,0.4-2,0.6-3.1,0.6c-1.2,0-2.3-0.2-3.4-0.6
			c-0.9-0.3-1.8-0.8-2.5-1.5c-0.2-0.2-0.3-0.5-0.3-0.8c0-0.4,0.2-0.8,0.5-1c0.3-0.2,0.6-0.3,0.9-0.4c0.4,0,0.7,0.2,1,0.5
			c0.4,0.4,0.9,0.8,1.5,1c0.7,0.3,1.4,0.4,2.1,0.4c0.8,0,1.6-0.1,2.3-0.5c0.5-0.3,0.8-0.8,0.8-1.3c0-0.6-0.3-1.1-0.8-1.4
			c-0.9-0.5-1.8-0.8-2.8-0.9c-3.4-0.7-5.1-2-5.1-4.2c0-0.8,0.3-1.6,0.8-2.2c0.5-0.6,1.2-1.1,2-1.3c0.8-0.3,1.7-0.5,2.6-0.4
			C92,3.6,93,3.8,94,4.1z"/>
	</g>
	<path id="Path_112_1_" class="st1" d="M2918.8-5064c0.3-0.3,0.5-0.7,0.5-1.1c0-1.3-0.3-2.7-0.8-3.9c-0.5-1.1-1.4-2-2.4-2.7
		c-1.1-0.7-2.4-1-3.7-1c-1.4,0-2.7,0.3-3.9,1c-1.1,0.7-2.1,1.6-2.7,2.8c-0.6,1.2-1,2.6-1,4c0,1.4,0.3,2.8,1,4
		c0.7,1.2,1.6,2.1,2.8,2.7c1.2,0.7,2.6,1,4.1,1c0.9,0,1.8-0.2,2.7-0.5c0.8-0.3,1.6-0.7,2.3-1.2c0.4-0.2,0.6-0.7,0.6-1.1
		c0-0.5-0.2-0.9-0.6-1.2c-0.3-0.2-0.7-0.4-1-0.4c-0.4,0-0.8,0.1-1.1,0.4c-0.4,0.3-0.8,0.5-1.3,0.7c-0.5,0.2-1,0.3-1.5,0.3
		c-1.1,0-2.3-0.3-3.2-1.1c-0.7-0.6-1.2-1.4-1.5-2.3h9.6C2918.1-5063.6,2918.5-5063.7,2918.8-5064z M2909.5-5068.6
		c0.8-0.7,1.8-1,2.9-1c0.9,0,1.9,0.3,2.6,1c0.6,0.6,1,1.4,1.1,2.2h-7.9C2908.4-5067.3,2908.8-5068,2909.5-5068.6L2909.5-5068.6z"/>
</g>
</svg>
